<svg width="29" height="29" viewBox="0 0 29 29" fill="none" xmlns="http://www.w3.org/2000/svg">
<g clip-path="url(#clip0_633_1772)">
<path d="M21.1545 17.2876L21.1436 17.3783C18.4865 16.0539 18.2085 15.8775 17.8654 16.3923C17.6273 16.7487 16.9337 17.5571 16.7247 17.7963C16.5132 18.032 16.303 18.0501 15.9441 17.887C15.5816 17.7057 14.418 17.3251 13.0405 16.0926C11.9675 15.132 11.2473 13.9538 11.0347 13.5913C10.6806 12.9799 11.4213 12.8929 12.0956 11.6169C12.2164 11.3632 12.1548 11.1638 12.0654 10.9838C11.9747 10.8025 11.2534 9.02625 10.9513 8.31817C10.6613 7.6125 10.3628 7.70192 10.1393 7.70192C9.44329 7.6415 8.93458 7.65117 8.48629 8.11758C6.53604 10.2612 7.02783 12.4724 8.69654 14.8238C11.976 19.1158 13.7232 19.9061 16.918 21.0033C17.7808 21.2775 18.5674 21.2389 19.1897 21.1495C19.8833 21.0395 21.3248 20.2783 21.6257 19.4264C21.9338 18.5745 21.9338 17.8676 21.8432 17.7045C21.7538 17.5414 21.517 17.4508 21.1545 17.2876Z" fill="#64D149"/>
<path d="M24.795 4.16752C15.5041 -4.81402 0.128083 1.7001 0.12204 14.3707C0.12204 16.9033 0.785415 19.3732 2.04933 21.5542L-2.66334e-06 29L7.65479 27.0038C17.2067 32.1634 28.9952 25.3121 29 14.3779C29 10.5403 27.5017 6.92856 24.7769 4.21464L24.795 4.16752ZM26.5857 14.3381C26.5785 23.5613 16.4539 29.3214 8.44624 24.6137L8.01125 24.3551L3.48 25.5333L4.69437 21.1289L4.40558 20.6758C-0.577585 12.7431 5.1475 2.37556 14.587 2.37556C17.7939 2.37556 20.8039 3.62618 23.0707 5.89181C25.3363 8.1381 26.5857 11.1481 26.5857 14.3381Z" fill="#64D149"/>
</g>
<defs>
<clipPath id="clip0_633_1772">
<rect width="29" height="29" fill="white"/>
</clipPath>
</defs>
</svg>
