<svg width="735" height="78" viewBox="0 0 735 78" fill="none" xmlns="http://www.w3.org/2000/svg">
<path d="M578.307 4.13362C580.426 6.18014 581.59 8.89744 581.59 11.7823C581.59 14.6724 580.426 17.3844 578.307 19.4311L537.137 59.1994C525.267 70.6643 509.472 76.9733 492.645 76.9733C479.808 76.9733 467.575 73.3028 457.227 66.4741C465.067 69.8351 473.974 69.8598 483.129 67.3582C496.032 63.8321 509.47 55.2805 521.25 43.902L562.421 4.13362C564.54 2.08644 567.356 0.955933 570.364 0.955933C573.367 0.955933 576.188 2.08653 578.307 4.13362Z" stroke="#00579F"/>
<path d="M512.395 50.3879C506.432 53.6151 499.677 55.331 492.644 55.331C481.83 55.331 471.665 51.2732 464.039 43.9016L422.392 3.67281L512.395 50.3879ZM512.395 50.3879C502.87 58.0477 492.687 63.709 482.864 66.3934C470.181 69.8594 458.143 68.3567 448.837 59.8491L448.821 59.8353L448.805 59.8228C448.805 59.8228 448.802 59.8204 448.795 59.8141C448.787 59.8067 448.778 59.7978 448.764 59.7844L448.764 59.7844L448.758 59.7788L448.743 59.7647C448.543 59.576 448.345 59.39 448.147 59.1992L406.506 18.9756C406.505 18.9755 406.505 18.9753 406.505 18.9752C404.386 16.9231 403.223 14.2109 403.223 11.3211C403.223 8.43619 404.386 5.71889 406.505 3.67237L406.505 3.67235C408.624 1.62569 411.445 0.5 414.448 0.5C417.451 0.5 420.267 1.62529 422.392 3.67237L512.395 50.3879Z" stroke="#00579F"/>
<path d="M124.879 11.0363C114.517 4.18378 102.272 0.5 89.439 0.5C72.6295 0.5 56.8338 6.81945 44.9477 18.2954C44.9476 18.2954 44.9476 18.2955 44.9475 18.2955L3.77692 58.0691L3.77689 58.0691C-0.592298 62.2895 -0.592298 69.1462 3.77689 73.3666C8.15547 77.596 15.2844 77.5912 19.6636 73.3666L124.879 11.0363ZM124.879 11.0363C117.051 7.67232 108.155 7.63823 99.0115 10.127C86.0912 13.6438 72.6309 22.2035 60.8344 33.5982L19.6639 73.3664L124.879 11.0363Z" stroke="#00579F"/>
<path d="M258.546 4.38583L258.547 4.38561C262.92 0.156246 270.054 0.155942 274.433 4.38583C278.797 8.60089 278.802 15.4631 274.433 19.6833L233.529 59.1942C233.529 59.1942 233.529 59.1942 233.529 59.1943C221.643 70.6703 205.847 76.995 189.037 76.995C176.207 76.995 163.964 73.3094 153.603 66.4579C161.43 69.8207 170.323 69.855 179.465 67.3673C192.385 63.8512 205.846 55.2915 217.642 43.8968L258.546 4.38583Z" stroke="#00579F"/>
<path d="M145.153 59.7645L145.151 59.7631C144.949 59.5789 144.748 59.3892 144.546 59.194L144.546 59.1938L118.042 33.5984C118.042 33.5983 118.042 33.5982 118.042 33.5982C110.4 26.211 100.241 22.1475 89.4371 22.1475C82.4211 22.1475 75.6754 23.8628 69.713 27.0905C79.2479 19.4275 89.4416 13.7677 99.2721 11.092C111.971 7.63535 124.02 9.16437 133.321 17.7248L133.323 17.7261C133.524 17.9104 133.726 18.1001 133.928 18.2953L133.928 18.2954L160.432 43.8964C168.074 51.2782 178.233 55.3417 189.037 55.3417C196.056 55.3417 202.806 53.6251 208.771 50.3963C199.233 58.0632 189.036 63.7258 179.202 66.402C166.503 69.8579 154.454 68.3276 145.153 59.7645Z" stroke="#00579F"/>
<path d="M430.271 65.7182C430.271 68.603 429.108 71.3205 426.989 73.367C424.87 75.4141 422.048 76.5447 419.046 76.5447C416.037 76.5447 413.222 75.4142 411.102 73.367L369.931 33.5985C358.152 22.22 344.714 13.6685 331.81 10.1423C322.656 7.64062 313.748 7.66545 305.908 11.0265C316.257 4.19768 328.49 0.527222 341.327 0.527222C358.153 0.527222 373.949 6.83618 385.818 18.3011L426.989 58.0695C429.108 60.1161 430.271 62.8281 430.271 65.7182Z" stroke="#00579F"/>
<path d="M361.075 27.1124C351.55 19.4525 341.367 13.7912 331.544 11.1069C318.861 7.64087 306.823 9.14356 297.516 17.6511L297.501 17.665L297.485 17.6773C297.485 17.6773 297.482 17.6796 297.476 17.6859C297.467 17.6936 297.458 17.7026 297.443 17.7168L297.438 17.7215L297.438 17.7215L297.422 17.7366C297.222 17.9249 297.024 18.1106 296.827 18.301L255.185 58.5247C255.185 58.5248 255.185 58.5249 255.185 58.525C253.066 60.5772 251.902 63.2893 251.902 66.1791C251.902 69.0641 253.066 71.7814 255.185 73.8279C257.304 75.8746 260.125 77.0002 263.128 77.0002C266.131 77.0002 268.947 75.8749 271.072 73.8279L361.075 27.1124ZM361.075 27.1124C355.112 23.8852 348.357 22.1692 341.324 22.1692C330.509 22.1692 320.345 26.227 312.719 33.5985C312.719 33.5985 312.719 33.5986 312.719 33.5986L271.072 73.8274L361.075 27.1124Z" stroke="#00579F"/>
<path d="M733.924 65.7182C733.924 68.603 732.76 71.3205 730.641 73.367C728.522 75.4141 725.701 76.5447 722.698 76.5447C719.69 76.5447 716.874 75.4142 714.755 73.367L673.584 33.5985C661.804 22.22 648.366 13.6685 635.463 10.1423C626.308 7.64063 617.401 7.66545 609.561 11.0265C619.909 4.19768 632.142 0.527222 644.979 0.527222C661.806 0.527222 677.602 6.83618 689.471 18.3011L730.641 58.0695C732.76 60.1161 733.924 62.8281 733.924 65.7182Z" stroke="#00579F"/>
<path d="M635.196 11.1069C645.019 13.7913 655.203 19.4525 664.728 27.1124C658.764 23.8852 652.009 22.1692 644.976 22.1692C634.162 22.1692 623.997 26.2271 616.372 33.5986L574.724 73.8274C572.599 75.8748 569.783 77.0002 566.78 77.0002C563.777 77.0002 560.956 75.8746 558.837 73.8279C556.718 71.7814 555.555 69.0641 555.555 66.1792C555.555 63.2893 556.718 60.5772 558.837 58.525C558.837 58.5249 558.837 58.5248 558.838 58.5247L600.479 18.3012C600.682 18.1055 600.885 17.9148 601.091 17.7215L601.091 17.7215L601.094 17.7178C601.1 17.712 601.105 17.7072 601.11 17.703C601.117 17.6961 601.123 17.6907 601.128 17.6857C601.135 17.6795 601.138 17.6772 601.138 17.6771L601.153 17.665L601.169 17.6511C610.475 9.14356 622.513 7.64087 635.196 11.1069Z" stroke="#00579F"/>
<path d="M352.295 52.9979C352.295 58.9526 347.293 63.8093 341.085 63.8093C334.877 63.8093 329.875 58.9526 329.875 52.9979C329.875 47.0432 334.877 42.1865 341.085 42.1865C347.293 42.1865 352.295 47.0433 352.295 52.9979Z" stroke="#00579F"/>
<path d="M655.95 52.9979C655.95 58.9526 650.947 63.8093 644.74 63.8093C638.532 63.8093 633.529 58.9526 633.529 52.9979C633.529 47.0432 638.532 42.1865 644.74 42.1865C650.947 42.1865 655.95 47.0433 655.95 52.9979Z" stroke="#00579F"/>
</svg>
