<svg width="102" height="20" viewBox="0 0 102 20" fill="none" xmlns="http://www.w3.org/2000/svg">
    <g clip-path="url(#clip0_384_930)">
        <path fill-rule="evenodd" clip-rule="evenodd"
              d="M62.545 15.0534L59.584 20L62.2647 13.9883C62.7713 14.6329 63.8422 15.1879 65.2903 15.1879C65.8042 15.1879 66.2821 15.1293 66.7205 15.0155C65.8473 15.2534 64.144 15.5774 62.545 15.0534V15.0534ZM67.3134 14.8294L67.3062 14.8328L67.3134 14.8294Z"
              fill="#98A3AC"></path>
        <path
                d="M27.7969 0.348145H29.0258V7.64218L33.5212 3.90899H35.3143L30.0176 8.30747L35.6233 13.1368H33.8661L29.0258 8.96586V13.1368H27.7969V0.348145Z"
                fill="#98A3AC"></path>
        <path
                d="M26.2667 5.82902L25.2857 6.41503C24.4341 5.33609 23.2734 4.79835 21.8001 4.79835C20.6215 4.79835 19.6441 5.16029 18.8643 5.88073C18.0881 6.60117 17.7 7.47673 17.7 8.50741C17.7 9.17959 17.8797 9.81041 18.239 10.4033C18.5948 10.9928 19.0871 11.4547 19.7123 11.7821C20.334 12.1096 21.0347 12.2716 21.8109 12.2716C23.2303 12.2716 24.391 11.7339 25.2893 10.6549L26.2703 11.2754C25.8068 11.9373 25.1887 12.4509 24.4125 12.8197C23.6328 13.1851 22.7488 13.3678 21.757 13.3678C20.2298 13.3678 18.9649 12.9059 17.9588 11.9786C16.9526 11.0514 16.4531 9.92761 16.4531 8.60048C16.4531 7.71113 16.6903 6.88383 17.161 6.11858C17.6282 5.35333 18.275 4.75698 19.0979 4.32954C19.9208 3.9021 20.8407 3.68494 21.8576 3.68494C22.4972 3.68494 23.1153 3.77801 23.7082 3.96415C24.3011 4.15029 24.8042 4.39159 25.2174 4.69149C25.6343 4.99138 25.9828 5.37056 26.2739 5.82902H26.2667Z"
                fill="#98A3AC"></path>
        <path d="M13.9512 3.90906H15.1837V13.1369H13.9512V3.90906Z" fill="#98A3AC"></path>
        <path d="M11.1699 0.348145H12.4025V13.1368H11.1699V0.348145Z" fill="#98A3AC"></path>
        <path
                d="M9.81914 5.82902L8.83814 6.41503C7.9865 5.33609 6.82583 4.79835 5.34894 4.79835C4.1703 4.79835 3.1929 5.16029 2.41313 5.88073C1.63695 6.60117 1.24887 7.47673 1.24887 8.50741C1.24887 9.17959 1.42854 9.81041 1.78788 10.4033C2.14362 10.9928 2.63592 11.4547 3.26117 11.7821C3.88283 12.1096 4.58355 12.2716 5.35972 12.2716C6.77912 12.2716 7.93979 11.7339 8.83814 10.6549L9.81914 11.2754C9.35559 11.9373 8.73752 12.4509 7.96135 12.8197C7.18158 13.1851 6.2976 13.3678 5.30582 13.3678C3.77862 13.3678 2.51374 12.9059 1.50759 11.9786C0.501437 11.0514 0.00195312 9.92761 0.00195312 8.60048C0.00195312 7.71113 0.239118 6.88383 0.709854 6.11858C1.177 5.35333 1.82381 4.75698 2.6467 4.32954C3.46959 3.9021 4.3895 3.68494 5.40644 3.68494C6.04606 3.68494 6.66413 3.77801 7.25704 3.96415C7.84995 4.15029 8.35303 4.39159 8.76627 4.69149C9.18311 4.99138 9.53167 5.37056 9.82273 5.82902H9.81914Z"
                fill="#98A3AC"></path>
        <path
                d="M40.8086 0.46875H42.0411V3.90894H45.6238V4.93273H42.0411V13.1368H40.8086V4.93273V3.90894V0.46875V0.46875ZM50.5719 3.68488C52.056 3.68488 53.2849 4.1985 54.2623 5.22573C55.1499 6.15989 55.5955 7.26985 55.5955 8.55217C55.5955 9.83793 55.1283 10.9617 54.1868 11.9234C53.249 12.8852 52.0416 13.3643 50.5719 13.3643C49.0914 13.3643 47.8804 12.8817 46.9461 11.9234C46.0083 10.9617 45.5375 9.83793 45.5375 8.55217C45.5375 7.27675 45.9831 6.17023 46.8707 5.23607C47.8445 4.20195 49.0806 3.68488 50.5719 3.68488V3.68488ZM50.5647 4.85C49.537 4.85 48.653 5.21194 47.9128 5.93928C47.1725 6.66661 46.806 7.54562 46.806 8.5763C46.806 9.23814 46.9749 9.85862 47.3091 10.4343C47.6468 11.0065 48.1032 11.4512 48.6782 11.7649C49.2495 12.0785 49.8784 12.2337 50.5647 12.2337C51.251 12.2337 51.8799 12.0785 52.4512 11.7649C53.0262 11.4512 53.4825 11.0099 53.8203 10.4343C54.1545 9.85862 54.3234 9.23814 54.3234 8.5763C54.3234 7.54562 53.9533 6.66317 53.2094 5.93928C52.4692 5.21194 51.5888 4.85 50.5647 4.85V4.85Z"
                fill="#98A3AC"></path>
        <path
                d="M61.7725 3.57808H59.0918V18.1593L61.7725 12.1475C62.2791 12.7921 63.35 13.3471 64.7981 13.3471C67.9495 13.3471 69.7966 11.1065 69.7966 8.35919C69.7966 5.61186 67.9495 3.37125 64.7981 3.37125C63.3859 3.37125 62.1893 3.99517 61.7725 4.53637V3.58152V3.57808ZM61.6647 8.35574C61.6647 6.68735 62.714 5.66356 64.3993 5.66356C66.0666 5.66356 67.1338 6.84592 67.1338 8.35574C67.1338 9.92072 66.1205 11.0652 64.3993 11.0652C62.714 11.0652 61.6647 9.93451 61.6647 8.35574ZM75.334 13.3781C78.2518 13.3781 79.5922 11.6753 79.9911 11.1548L77.8889 9.98966C77.5799 10.3206 76.8396 11.1031 75.334 11.1031C74.7914 11.1031 72.9444 10.9307 72.6174 9.36574H80.4798C80.4798 9.36574 80.5337 8.89693 80.5337 8.16615C80.4438 5.09135 77.8889 3.42296 75.334 3.42296C73.469 3.42296 69.9187 4.46743 69.9187 8.39366C69.9187 12.3199 73.3972 13.3816 75.334 13.3816V13.3781ZM75.316 5.69804C76.6743 5.69804 77.5619 6.65288 77.6697 7.52154H72.6892C72.7971 6.54947 73.7565 5.69804 75.316 5.69804ZM88.6584 13.1369H91.339V3.57808H88.6584V4.56739C88.1517 3.92279 87.0808 3.3678 85.6327 3.3678C82.4813 3.3678 80.6343 5.60841 80.6343 8.35574C80.6343 11.1031 82.4813 13.3437 85.6327 13.3437C87.0449 13.3437 88.2415 12.7198 88.6584 12.1786V13.1334V13.1369ZM88.7662 8.35919C88.7662 10.0276 87.7169 11.0514 86.0316 11.0514C84.3642 11.0514 83.297 9.86901 83.297 8.35919C83.297 6.79421 84.3103 5.64978 86.0316 5.64978C87.7169 5.64978 88.7662 6.78042 88.7662 8.35919V8.35919ZM92.4171 0V13.1369H95.1337V9.7587L98.7199 13.1369H102.001L97.0921 8.59014L101.839 3.63323H98.5223L95.1337 7.64909V0.00344709H92.4171V0Z"
                fill="#98A3AC"></path>
        <path d="M13.9512 0.348145H15.1837V2.93691H13.9512V0.348145Z" fill="#98A3AC"></path>
        <path
                d="M1.58294 15.3705V17.3423H1.39249V17.0975C1.31343 17.1906 1.2236 17.2595 1.12298 17.3078C1.02237 17.3526 0.914564 17.3767 0.795982 17.3767C0.587564 17.3767 0.407894 17.3043 0.256971 17.1596C0.109641 17.0148 0.0341797 16.8355 0.0341797 16.6287C0.0341797 16.4253 0.109641 16.2495 0.260564 16.1048C0.411487 15.96 0.591158 15.8876 0.803169 15.8876C0.925345 15.8876 1.03315 15.9117 1.13376 15.9634C1.23078 16.0117 1.31703 16.0875 1.39249 16.1875V15.374H1.58294V15.3705ZM0.817542 16.0634C0.70974 16.0634 0.612718 16.0875 0.522883 16.1392C0.433048 16.1875 0.36118 16.2599 0.307279 16.3495C0.253378 16.4391 0.228224 16.5356 0.228224 16.6356C0.228224 16.7356 0.253378 16.8321 0.307279 16.9217C0.36118 17.0113 0.433048 17.0837 0.522883 17.1354C0.612718 17.1871 0.70974 17.2113 0.813949 17.2113C0.918158 17.2113 1.01877 17.1871 1.10861 17.1354C1.20204 17.0837 1.27391 17.0182 1.32421 16.9321C1.37452 16.8459 1.39967 16.7494 1.39967 16.6425C1.39967 16.477 1.34218 16.3426 1.23078 16.2323C1.11939 16.122 0.979246 16.0668 0.813949 16.0668L0.817542 16.0634ZM4.89965 15.3361C4.94277 15.3361 4.97871 15.3498 5.01105 15.3809C5.04339 15.4119 5.05776 15.4464 5.05776 15.4877C5.05776 15.5291 5.04339 15.5636 5.01105 15.5946C4.97871 15.6256 4.94277 15.6394 4.89965 15.6394C4.85653 15.6394 4.8206 15.6256 4.78826 15.5946C4.75592 15.5636 4.74154 15.5291 4.74154 15.4877C4.74154 15.4464 4.75592 15.4084 4.78826 15.3809C4.8206 15.3498 4.85653 15.3361 4.89965 15.3361ZM4.80622 15.9221H4.99667V17.3457H4.80622V15.9221ZM9.49562 15.9221H9.68607V17.0562C9.68607 17.2561 9.6681 17.4009 9.63217 17.4939C9.58186 17.6249 9.49562 17.7249 9.37344 17.7973C9.25127 17.8662 9.10035 17.9041 8.92786 17.9041C8.80209 17.9041 8.6871 17.8869 8.58649 17.8524C8.48587 17.818 8.40322 17.7697 8.33854 17.7111C8.27386 17.6525 8.21637 17.5663 8.16247 17.456H8.37088C8.42838 17.5491 8.50025 17.6215 8.59008 17.6663C8.67992 17.7111 8.79131 17.7352 8.92067 17.7352C9.05004 17.7352 9.16143 17.7111 9.25127 17.6663C9.3411 17.6215 9.40579 17.5629 9.44172 17.4905C9.48125 17.4215 9.49921 17.3078 9.49921 17.1492V17.0768C9.42735 17.163 9.3411 17.232 9.2369 17.2768C9.13269 17.325 9.02129 17.3457 8.9063 17.3457C8.76975 17.3457 8.64039 17.3147 8.52181 17.2492C8.40322 17.1837 8.3098 17.0975 8.24152 16.9872C8.17684 16.8769 8.1445 16.7563 8.1445 16.6253C8.1445 16.4943 8.17684 16.3702 8.24511 16.2564C8.31339 16.1427 8.40682 16.0531 8.52899 15.9876C8.65117 15.9221 8.77694 15.8876 8.9099 15.8876C9.02129 15.8876 9.1255 15.9083 9.21893 15.9531C9.31595 15.9979 9.40938 16.0703 9.49562 16.1703V15.9221V15.9221ZM8.93146 16.0634C8.82365 16.0634 8.72304 16.0875 8.62961 16.1392C8.53618 16.1909 8.46431 16.2599 8.41041 16.3461C8.35651 16.4357 8.33136 16.5288 8.33136 16.6322C8.33136 16.7873 8.38526 16.9183 8.49306 17.0182C8.60086 17.1217 8.7446 17.1699 8.91708 17.1699C9.09316 17.1699 9.2333 17.1182 9.3411 17.0182C9.44891 16.9183 9.50281 16.7838 9.50281 16.6184C9.50281 16.5115 9.47765 16.415 9.43094 16.3323C9.38063 16.2495 9.31236 16.1806 9.22252 16.1323C9.13269 16.0841 9.03566 16.0599 8.93146 16.0599V16.0634ZM12.9776 15.3361C13.0208 15.3361 13.0567 15.3498 13.089 15.3809C13.1214 15.4119 13.1357 15.4464 13.1357 15.4877C13.1357 15.5291 13.1214 15.5636 13.089 15.5946C13.0567 15.6256 13.0208 15.6394 12.9776 15.6394C12.9345 15.6394 12.8986 15.6256 12.8662 15.5946C12.8339 15.5636 12.8195 15.5291 12.8195 15.4877C12.8195 15.4464 12.8339 15.4084 12.8662 15.3809C12.8986 15.3498 12.9345 15.3361 12.9776 15.3361ZM12.8842 15.9221H13.0747V17.3457H12.8842V15.9221ZM16.4525 15.3912H16.6429V15.9221H16.9448V16.0806H16.6429V17.3457H16.4525V16.0806H16.1937V15.9221H16.4525V15.3912ZM21.5299 15.9221V17.3457H21.3395V17.101C21.2604 17.194 21.1706 17.263 21.07 17.3112C20.9694 17.3561 20.8616 17.3802 20.743 17.3802C20.5346 17.3802 20.3549 17.3078 20.204 17.163C20.0566 17.0182 19.9812 16.839 19.9812 16.6322C19.9812 16.4288 20.0566 16.253 20.2076 16.1082C20.3585 15.9634 20.5382 15.891 20.7502 15.891C20.8723 15.891 20.9801 15.9152 21.0808 15.9634C21.1778 16.0117 21.264 16.0875 21.3395 16.1875V15.9255H21.5299V15.9221ZM20.7645 16.0634C20.6567 16.0634 20.5597 16.0875 20.4699 16.1392C20.38 16.1875 20.3082 16.2599 20.2543 16.3495C20.2004 16.4391 20.1752 16.5356 20.1752 16.6356C20.1752 16.7356 20.2004 16.8321 20.2543 16.9217C20.3082 17.0113 20.38 17.0837 20.4699 17.1354C20.5597 17.1871 20.6567 17.2113 20.761 17.2113C20.8652 17.2113 20.9658 17.1871 21.0556 17.1354C21.149 17.0837 21.2209 17.0182 21.2712 16.9321C21.3215 16.8459 21.3467 16.7494 21.3467 16.6425C21.3467 16.477 21.2892 16.3426 21.1778 16.2323C21.0664 16.122 20.9262 16.0668 20.761 16.0668L20.7645 16.0634ZM24.7496 15.3705H24.9401V17.3423H24.7496V15.3705ZM31.9544 15.9186V17.3423H31.764V17.0975C31.6849 17.1906 31.5951 17.2595 31.4945 17.3078C31.3938 17.3526 31.286 17.3767 31.1675 17.3767C30.959 17.3767 30.7794 17.3043 30.6284 17.1596C30.4811 17.0148 30.4057 16.8355 30.4057 16.6287C30.4057 16.4253 30.4811 16.2495 30.632 16.1048C30.783 15.96 30.9626 15.8876 31.1746 15.8876C31.2968 15.8876 31.4046 15.9117 31.5052 15.96C31.6023 16.0082 31.6885 16.0841 31.764 16.184V15.9221H31.9544V15.9186ZM31.189 16.0599C31.0812 16.0599 30.9842 16.0841 30.8944 16.1358C30.8045 16.184 30.7327 16.2564 30.6788 16.3461C30.6249 16.4357 30.5997 16.5322 30.5997 16.6322C30.5997 16.7321 30.6249 16.8286 30.6788 16.9183C30.7327 17.0079 30.8045 17.0803 30.8944 17.132C30.9842 17.1837 31.0812 17.2078 31.1854 17.2078C31.2896 17.2078 31.3902 17.1837 31.4801 17.132C31.5735 17.0803 31.6454 17.0148 31.6957 16.9286C31.746 16.8424 31.7712 16.7459 31.7712 16.6391C31.7712 16.4736 31.7137 16.3392 31.6023 16.2289C31.4909 16.1185 31.3507 16.0634 31.1854 16.0634L31.189 16.0599ZM36.4857 15.9186H36.6762V17.0527C36.6762 17.2526 36.6582 17.3974 36.6223 17.4905C36.5719 17.6215 36.4857 17.7214 36.3635 17.7938C36.2414 17.8628 36.0904 17.9007 35.9179 17.9007C35.7922 17.9007 35.6772 17.8835 35.5766 17.849C35.476 17.8145 35.3933 17.7663 35.3286 17.7077C35.2639 17.6491 35.2064 17.5629 35.1525 17.4526H35.361C35.4185 17.5456 35.4903 17.618 35.5802 17.6628C35.67 17.7077 35.7814 17.7318 35.9108 17.7318C36.0401 17.7318 36.1515 17.7077 36.2413 17.6628C36.3312 17.618 36.3959 17.5594 36.4318 17.487C36.4713 17.4181 36.4893 17.3043 36.4893 17.1458V17.0734C36.4174 17.1596 36.3312 17.2285 36.227 17.2733C36.1228 17.3216 36.0114 17.3423 35.8964 17.3423C35.7598 17.3423 35.6305 17.3112 35.5119 17.2457C35.3933 17.1803 35.2999 17.0941 35.2316 16.9838C35.1669 16.8735 35.1346 16.7528 35.1346 16.6218C35.1346 16.4908 35.1669 16.3667 35.2352 16.253C35.3035 16.1392 35.3969 16.0496 35.5191 15.9841C35.6412 15.9186 35.767 15.8841 35.9 15.8841C36.0114 15.8841 36.1156 15.9048 36.209 15.9496C36.306 15.9945 36.3995 16.0668 36.4857 16.1668V15.9186V15.9186ZM35.9215 16.0599C35.8137 16.0599 35.7131 16.0841 35.6197 16.1358C35.5263 16.1875 35.4544 16.2564 35.4005 16.3426C35.3466 16.4322 35.3214 16.5253 35.3214 16.6287C35.3214 16.7838 35.3753 16.9148 35.4831 17.0148C35.5909 17.1182 35.7347 17.1665 35.9072 17.1665C36.0832 17.1665 36.2234 17.1148 36.3312 17.0148C36.439 16.9148 36.4929 16.7804 36.4929 16.6149C36.4929 16.5081 36.4677 16.4116 36.421 16.3288C36.3707 16.2461 36.3024 16.1771 36.2126 16.1289C36.1228 16.0806 36.0257 16.0565 35.9215 16.0565V16.0599ZM41.1535 16.87L41.3152 16.9527C41.2613 17.0527 41.2003 17.132 41.132 17.1906C41.0637 17.2492 40.9846 17.2975 40.8984 17.3285C40.8122 17.3595 40.7151 17.3767 40.6037 17.3767C40.3594 17.3767 40.1725 17.3009 40.0324 17.1492C39.8958 16.9976 39.8276 16.8252 39.8276 16.6356C39.8276 16.4564 39.8851 16.2943 40.0001 16.153C40.1474 15.9738 40.345 15.8841 40.5894 15.8841C40.8445 15.8841 41.0457 15.9772 41.1967 16.1599C41.3045 16.2909 41.3584 16.4529 41.362 16.646H40.0216C40.0252 16.8114 40.0791 16.9458 40.1869 17.0493C40.2947 17.1561 40.4277 17.2078 40.5822 17.2078C40.6576 17.2078 40.7331 17.194 40.805 17.1699C40.8768 17.1458 40.9379 17.1113 40.9882 17.0699C41.0385 17.0286 41.0924 16.9631 41.1499 16.87H41.1535ZM41.1571 16.4874C41.132 16.3909 41.096 16.3116 41.0457 16.253C40.9954 16.1944 40.9307 16.1461 40.8517 16.1117C40.7726 16.0772 40.6864 16.0565 40.5966 16.0565C40.4492 16.0565 40.3235 16.1013 40.2193 16.1909C40.1402 16.2564 40.0827 16.353 40.0432 16.4839H41.1571V16.4874ZM44.5349 15.9186H44.7254V16.1737C44.8008 16.0772 44.8871 16.0048 44.9805 15.9565C45.0739 15.9083 45.1746 15.8841 45.286 15.8841C45.3973 15.8841 45.4944 15.9117 45.5806 15.9634C45.6669 16.0186 45.7315 16.091 45.7711 16.1806C45.8106 16.2702 45.8322 16.415 45.8322 16.608V17.3388H45.6417V16.6597C45.6417 16.4977 45.6345 16.3874 45.6201 16.3323C45.5986 16.2392 45.5555 16.1668 45.4908 16.1185C45.4261 16.0703 45.347 16.0462 45.2464 16.0462C45.1314 16.0462 45.0272 16.0841 44.9338 16.1565C44.8404 16.2289 44.7829 16.3185 44.7541 16.4288C44.7362 16.4977 44.7254 16.6287 44.7254 16.8149V17.3354H44.5349V15.9117V15.9186ZM50.5 16.2151L50.3491 16.3047C50.2161 16.1392 50.04 16.0565 49.8101 16.0565C49.6268 16.0565 49.4759 16.1117 49.3573 16.222C49.2387 16.3323 49.1776 16.4667 49.1776 16.6287C49.1776 16.7321 49.2064 16.8286 49.2603 16.9217C49.3142 17.0113 49.3896 17.0837 49.4867 17.1354C49.5837 17.1871 49.6915 17.2113 49.8101 17.2113C50.0293 17.2113 50.2089 17.1285 50.3455 16.9631L50.4964 17.0596C50.4245 17.163 50.3311 17.2423 50.2089 17.2975C50.0903 17.3526 49.9538 17.3836 49.7993 17.3836C49.5621 17.3836 49.3681 17.3112 49.2135 17.1699C49.059 17.0286 48.98 16.8528 48.98 16.6494C48.98 16.5115 49.0159 16.384 49.0878 16.2668C49.1596 16.1496 49.2603 16.0565 49.386 15.991C49.5118 15.9255 49.6555 15.891 49.8101 15.891C49.9071 15.891 50.0041 15.9048 50.0939 15.9324C50.1838 15.96 50.2628 15.9979 50.3275 16.0462C50.3922 16.091 50.4461 16.1496 50.4892 16.222L50.5 16.2151ZM53.5256 15.9186H53.7233L54.2335 17.0113L54.7294 15.9186H54.9343L54.0467 17.8628H53.8419L54.1329 17.2251L53.522 15.9186H53.5256Z"
                fill="#9DAFBD"></path>
        <path fill-rule="evenodd" clip-rule="evenodd"
              d="M32.3857 8.3282L34.5023 10.1552V6.57019L32.3857 8.3282Z" fill="#98A3AC"></path>
    </g>
    <defs>
        <clipPath id="clip0_384_930">
            <rect width="102" height="20" fill="white"></rect>
        </clipPath>
    </defs>
</svg>