<svg width="1513" height="326" viewBox="0 0 1513 326" fill="none" xmlns="http://www.w3.org/2000/svg">
<path d="M0.609375 220.736C126.125 220.736 126.125 324 251.641 324C377.157 324 377.157 220.736 502.637 220.736C628.117 220.736 628.153 324 753.669 324C879.185 324 879.185 220.736 1004.7 220.736C1130.22 220.736 1130.22 324 1255.77 324C1381.32 324 1381.28 220.736 1506.8 220.736" stroke="#232323" stroke-opacity="0.1" stroke-width="2.28342" stroke-miterlimit="10"/>
<path d="M6.38232 169.449C131.898 169.449 131.898 272.714 257.414 272.714C382.93 272.714 382.93 169.449 508.41 169.449C633.89 169.449 633.926 272.714 759.442 272.714C884.958 272.714 884.958 169.449 1010.47 169.449C1135.99 169.449 1135.99 272.714 1261.54 272.714C1387.09 272.714 1387.06 169.449 1512.57 169.449" stroke="#232323" stroke-opacity="0.1" stroke-width="2.28342" stroke-miterlimit="10"/>
<path d="M2.57861 53.6323C128.095 53.6323 128.095 156.897 253.611 156.897C379.127 156.897 379.127 53.6323 504.606 53.6323C630.086 53.6323 630.122 156.897 755.638 156.897C881.154 156.897 881.154 53.6323 1006.67 53.6323C1132.19 53.6323 1132.19 156.897 1257.74 156.897C1383.29 156.897 1383.25 53.6323 1508.77 53.6323" stroke="#232323" stroke-opacity="0.1" stroke-width="2.28342" stroke-miterlimit="10"/>
<path d="M2.61426 2C128.13 2 128.13 105.264 253.646 105.264C379.162 105.264 379.162 2 504.642 2C630.122 2 630.158 105.264 755.674 105.264C881.19 105.264 881.19 2 1006.71 2C1132.22 2 1132.22 105.264 1257.77 105.264C1383.33 105.264 1383.29 2 1508.81 2" stroke="#232323" stroke-opacity="0.1" stroke-width="2.28342" stroke-miterlimit="10"/>
<path d="M6.41797 117.817C131.934 117.817 131.934 221.082 257.45 221.082C382.966 221.082 382.966 117.817 508.446 117.817C633.926 117.817 633.962 221.082 759.478 221.082C884.994 221.082 884.994 117.817 1010.51 117.817C1136.03 117.817 1136.03 221.082 1261.58 221.082C1387.13 221.082 1387.09 117.817 1512.61 117.817" stroke="#232323" stroke-opacity="0.1" stroke-width="2.28342" stroke-miterlimit="10"/>
</svg>
