<svg width="51" height="50" viewBox="0 0 51 50" fill="none" xmlns="http://www.w3.org/2000/svg">
                                        <path d="M49.4012 18.0869C49.4012 15.3212 42.2631 13.5171 33.711 12.7997V9.81556L38.7955 8.31829C38.907 8.28587 39.0044 8.21707 39.0722 8.12285C39.1401 8.02863 39.1744 7.91441 39.1698 7.7984C39.1744 7.68239 39.1401 7.56817 39.0722 7.47395C39.0044 7.37973 38.907 7.31093 38.7955 7.27851L33.3367 5.71885C33.2592 5.69626 33.1775 5.69201 33.0981 5.70644C33.0187 5.72088 32.9438 5.75361 32.8792 5.80204C32.8146 5.85046 32.7622 5.91326 32.7261 5.98545C32.69 6.05763 32.6712 6.13724 32.6712 6.21795V12.7217C30.4253 12.5554 28.0702 12.4774 25.7464 12.4774V9.81556L30.8308 8.31829C30.9423 8.28587 31.0397 8.21707 31.1076 8.12285C31.1754 8.02863 31.2098 7.91441 31.2052 7.7984C31.2098 7.68239 31.1754 7.56817 31.1076 7.47395C31.0397 7.37973 30.9423 7.31093 30.8308 7.27851L25.372 5.71885C25.2946 5.69626 25.2129 5.69201 25.1335 5.70644C25.0541 5.72088 24.9791 5.75361 24.9145 5.80204C24.85 5.85046 24.7976 5.91326 24.7615 5.98545C24.7254 6.05763 24.7066 6.13724 24.7066 6.21795V12.4774C22.3567 12.4774 19.9808 12.5814 17.6933 12.7477V9.83635L22.7778 8.31829C22.8893 8.28587 22.9867 8.21707 23.0546 8.12285C23.1224 8.02863 23.1567 7.91441 23.1521 7.7984C23.1567 7.68239 23.1224 7.56817 23.0546 7.47395C22.9867 7.37973 22.8893 7.31093 22.7778 7.27851L17.319 5.71885C17.2415 5.69626 17.1598 5.69201 17.0804 5.70644C17.001 5.72088 16.9261 5.75361 16.8615 5.80204C16.7969 5.85046 16.7445 5.91326 16.7084 5.98545C16.6723 6.05763 16.6535 6.13724 16.6535 6.21795V12.7685C8.14301 13.5171 1.05176 15.3264 1.05176 18.0869V33.6835C1.05176 34.4322 1.57164 35.1236 2.53343 35.7631L2.50224 36.283C2.48678 36.5668 2.52895 36.8508 2.62618 37.1178C2.72342 37.3849 2.87373 37.6295 3.06803 37.8369C3.26234 38.0444 3.49663 38.2103 3.75679 38.3247C4.01695 38.4392 4.29758 38.4998 4.58178 38.5029H4.88332V40.7124C4.88332 40.8503 4.93809 40.9825 5.03559 41.08C5.13309 41.1775 5.26532 41.2323 5.40321 41.2323C5.54109 41.2323 5.67332 41.1775 5.77082 41.08C5.86832 40.9825 5.92309 40.8503 5.92309 40.7124V38.4717H6.21943C6.50594 38.4729 6.7896 38.4148 7.05262 38.3012C7.31564 38.1876 7.55235 38.0208 7.74789 37.8114C7.78196 37.7739 7.81323 37.7339 7.84147 37.6919C8.92283 37.9414 10.1186 38.165 11.3975 38.3625L11.3507 39.2203C11.3315 39.5058 11.3725 39.7922 11.471 40.0609C11.5695 40.3296 11.7233 40.5746 11.9226 40.78C12.1175 40.9888 12.3534 41.1551 12.6155 41.2687C12.8775 41.3823 13.1602 41.4407 13.4458 41.4402H13.789V43.6705C13.789 43.8084 13.8437 43.9407 13.9412 44.0382C14.0387 44.1357 14.171 44.1904 14.3089 44.1904C14.4467 44.1904 14.579 44.1357 14.6765 44.0382C14.774 43.9407 14.8287 43.8084 14.8287 43.6705V41.4402H15.1303C15.4145 41.4371 15.6951 41.3765 15.9553 41.2621C16.2154 41.1476 16.4497 40.9817 16.644 40.7743C16.8383 40.5669 16.9886 40.3222 17.0859 40.0552C17.1831 39.7881 17.2253 39.5041 17.2098 39.2203V39.0124C19.7781 39.2151 22.4763 39.3191 25.2421 39.3191C27.9143 39.3191 30.5293 39.2203 33.0404 39.0332V39.2203C33.0249 39.5041 33.0671 39.7881 33.1643 40.0552C33.2615 40.3222 33.4118 40.5669 33.6061 40.7743C33.8005 40.9817 34.0347 41.1476 34.2949 41.2621C34.5551 41.3765 34.8357 41.4371 35.1199 41.4402H35.4214V43.6705C35.4214 43.8084 35.4762 43.9407 35.5737 44.0382C35.6712 44.1357 35.8034 44.1904 35.9413 44.1904C36.0792 44.1904 36.2114 44.1357 36.3089 44.0382C36.4064 43.9407 36.4612 43.8084 36.4612 43.6705V41.4402H36.7627C37.0469 41.4371 37.3276 41.3765 37.5877 41.2621C37.8479 41.1476 38.0822 40.9817 38.2765 40.7743C38.4708 40.5669 38.6211 40.3222 38.7183 40.0552C38.8156 39.7881 38.8577 39.5041 38.8423 39.2203L38.7955 38.3989C40.1368 38.1961 41.3949 37.9674 42.5075 37.7127C42.5075 37.7438 42.5543 37.7802 42.5855 37.8114C42.7804 38.0202 43.0163 38.1866 43.2784 38.3002C43.5404 38.4138 43.8231 38.4721 44.1087 38.4717H44.4051V40.6812C44.4051 40.8191 44.4598 40.9513 44.5573 41.0488C44.6548 41.1463 44.7871 41.2011 44.925 41.2011C45.0628 41.2011 45.1951 41.1463 45.2926 41.0488C45.3901 40.9513 45.4448 40.8191 45.4448 40.6812V38.4717H45.7464C46.0306 38.4686 46.3112 38.408 46.5714 38.2935C46.8315 38.1791 47.0658 38.0132 47.2601 37.8057C47.4544 37.5983 47.6047 37.3537 47.702 37.0866C47.7992 36.8196 47.8414 36.5356 47.8259 36.2518L47.7999 35.8203C48.8397 35.1756 49.3596 34.4634 49.3596 33.6887L49.4012 18.0869ZM33.711 6.95098L36.7835 7.83999L33.711 8.729V6.95098ZM17.6933 6.95098L20.7658 7.83999L17.6933 8.729V6.95098ZM48.3666 18.0869C48.3666 19.0123 46.651 19.9741 43.6356 20.7852C43.6149 20.77 43.5921 20.7577 43.5681 20.7488C40.4706 19.9903 37.3166 19.4844 34.1373 19.2359L37.6258 14.2294C44.2803 15.134 48.3614 16.6625 48.3614 18.0869H48.3666ZM25.2265 19.9221C27.9611 19.9221 30.6281 20.0261 33.1287 20.2185H33.1911C35.9282 20.4179 38.6505 20.7842 41.3429 21.3154C36.027 22.2868 30.6301 22.7464 25.2265 22.6879C19.8228 22.7464 14.426 22.2868 9.10999 21.3154C14.4251 20.3357 19.8221 19.8692 25.2265 19.9221ZM36.4612 14.1046L32.9416 19.1579C30.6489 18.9915 28.2262 18.898 25.7464 18.8876V13.5171C29.326 13.5167 32.903 13.7129 36.4612 14.1046ZM25.7464 6.95098L28.8189 7.83999L25.7464 8.729V6.95098ZM24.7066 18.9084C22.2007 18.9084 19.7521 19.0123 17.4282 19.1891L13.9085 14.1306C17.494 13.7295 21.0987 13.5247 24.7066 13.5171V18.9084ZM12.7492 14.2814L16.2324 19.2879C13.1107 19.5302 10.0129 20.0187 6.96806 20.7488C6.92404 20.7643 6.88213 20.7852 6.84329 20.8111C3.81755 20.0001 2.09153 19.0331 2.09153 18.1077C2.09153 16.6677 6.14144 15.1444 12.7492 14.2606V14.2814ZM7.03045 37.0992C6.93172 37.2057 6.81179 37.2903 6.67837 37.3476C6.54495 37.4049 6.40101 37.4336 6.25582 37.4319H4.60258C4.45988 37.4286 4.31929 37.3967 4.18915 37.3381C4.05902 37.2794 3.94199 37.1953 3.84501 37.0905C3.74803 36.9858 3.67308 36.8626 3.6246 36.7284C3.57612 36.5941 3.55511 36.4515 3.56281 36.309L3.77596 32.4514C3.78671 32.1829 3.90098 31.929 4.09483 31.7429C4.28867 31.5568 4.54703 31.453 4.81573 31.4532H6.02707C6.29578 31.453 6.55413 31.5568 6.74798 31.7429C6.94182 31.929 7.05609 32.1829 7.06684 32.4514L7.27999 36.309C7.29479 36.4507 7.28028 36.5941 7.23735 36.73C7.19442 36.8659 7.12399 36.9916 7.03045 37.0992ZM15.8685 40.0677C15.7704 40.1736 15.6513 40.2578 15.5188 40.3151C15.3863 40.3724 15.2434 40.4014 15.0991 40.4005H13.4666C13.3239 40.3972 13.1833 40.3653 13.0532 40.3066C12.9231 40.248 12.806 40.1638 12.7091 40.0591C12.6121 39.9543 12.5371 39.8312 12.4887 39.6969C12.4402 39.5627 12.4192 39.42 12.4269 39.2775L12.64 35.4252C12.6495 35.1557 12.7632 34.9005 12.9571 34.7133C13.1511 34.5261 13.4102 34.4216 13.6798 34.4218H14.8911C15.1607 34.4216 15.4198 34.5261 15.6138 34.7133C15.8078 34.9005 15.9215 35.1557 15.9309 35.4252L16.1441 39.2775C16.1554 39.4211 16.1367 39.5655 16.0893 39.7016C16.0419 39.8376 15.9667 39.9623 15.8685 40.0677ZM26.9369 33.3092C27.1874 33.3106 27.4273 33.4107 27.6044 33.5879C27.7816 33.765 27.8817 34.0049 27.8831 34.2554V38.2221C27.1708 38.2221 26.4534 38.2533 25.736 38.2533V33.33L26.9369 33.3092ZM24.7066 38.2741C23.9839 38.2741 23.2717 38.2741 22.5646 38.2429V34.2762C22.5646 34.0262 22.6636 33.7863 22.8399 33.609C23.0163 33.4317 23.2556 33.3314 23.5056 33.33H24.7066V38.2741ZM37.5114 40.0677C37.4132 40.1736 37.2941 40.2578 37.1617 40.3151C37.0292 40.3724 36.8863 40.4014 36.7419 40.4005H35.1043C34.96 40.4014 34.817 40.3724 34.6846 40.3151C34.5521 40.2578 34.433 40.1736 34.3349 40.0677C34.2376 39.9619 34.1634 39.837 34.1169 39.701C34.0703 39.5649 34.0525 39.4208 34.0645 39.2775L34.2777 35.4252C34.2871 35.1557 34.4008 34.9005 34.5948 34.7133C34.7888 34.5261 35.0479 34.4216 35.3175 34.4218H36.5288C36.7984 34.4216 37.0575 34.5261 37.2514 34.7133C37.4454 34.9005 37.5591 35.1557 37.5686 35.4252L37.7869 39.2775C37.7982 39.4211 37.7796 39.5655 37.7322 39.7016C37.6847 39.8376 37.6095 39.9623 37.5114 40.0677ZM46.5418 37.0992C46.4437 37.205 46.3246 37.2892 46.1921 37.3465C46.0596 37.4038 45.9167 37.4329 45.7724 37.4319H44.1087C43.9649 37.4324 43.8225 37.403 43.6906 37.3456C43.5587 37.2882 43.4402 37.2041 43.3425 37.0986C43.2447 36.993 43.17 36.8684 43.1229 36.7325C43.0758 36.5965 43.0575 36.4523 43.069 36.309L43.2821 32.4514C43.2929 32.1829 43.4071 31.929 43.601 31.7429C43.7948 31.5568 44.0532 31.453 44.3219 31.4532H45.5332C45.8019 31.453 46.0603 31.5568 46.2541 31.7429C46.448 31.929 46.5622 32.1829 46.573 32.4514L46.7861 36.309C46.8017 36.4504 46.788 36.5935 46.7459 36.7294C46.7039 36.8653 46.6344 36.9912 46.5418 37.0992ZM47.7791 34.6037L47.6544 32.3942C47.629 31.86 47.3987 31.3561 47.0114 30.9872C46.6241 30.6183 46.1096 30.4128 45.5748 30.4135H44.3219C43.7871 30.4128 43.2725 30.6183 42.8853 30.9872C42.498 31.3561 42.2677 31.86 42.2423 32.3942L42.024 36.2518C42.0127 36.4259 42.025 36.6008 42.0604 36.7717C41.0466 37.0004 39.9392 37.2032 38.7487 37.3851L38.6239 35.3524C38.5998 34.8172 38.3701 34.312 37.9827 33.942C37.5953 33.5721 37.0801 33.3659 36.5444 33.3664H35.3175C34.7826 33.3658 34.2681 33.5713 33.8808 33.9402C33.4936 34.309 33.2633 34.8129 33.2379 35.3472L33.0923 37.9466C31.7458 38.0506 30.3629 38.1234 28.9333 38.1702V34.2762C28.9319 33.7499 28.7222 33.2456 28.3501 32.8734C27.9779 32.5013 27.4736 32.2916 26.9473 32.2902H23.5056C22.9798 32.2916 22.476 32.5015 22.1047 32.8737C21.7334 33.246 21.5249 33.7504 21.5249 34.2762V38.2117C20.0276 38.165 18.5615 38.0818 17.137 37.9674L16.9915 35.368C16.9674 34.8328 16.7377 34.3276 16.3503 33.9576C15.9629 33.5877 15.4476 33.3815 14.9119 33.382H13.6798C13.145 33.3814 12.6305 33.5869 12.2432 33.9558C11.8559 34.3246 11.6257 34.8285 11.6002 35.3628L11.4911 37.3175C10.3577 37.1408 9.29715 36.9432 8.32497 36.7249C8.35122 36.5686 8.36167 36.4101 8.35616 36.2518L8.14301 32.3942C8.1176 31.86 7.88734 31.3561 7.50007 30.9872C7.1128 30.6183 6.5983 30.4128 6.06346 30.4135H4.81573C4.2809 30.4128 3.76639 30.6183 3.37912 30.9872C2.99185 31.3561 2.76159 31.86 2.73619 32.3942L2.60102 34.5206C2.46159 34.4253 2.34341 34.3023 2.25393 34.1591C2.16445 34.0159 2.10561 33.8558 2.08113 33.6887V26.899C3.18329 27.7672 5.15366 28.5315 7.99224 29.1709C8.03017 29.1763 8.06868 29.1763 8.10661 29.1709C8.2445 29.1861 8.38276 29.1459 8.49098 29.0591C8.5992 28.9723 8.66852 28.8461 8.68369 28.7082C8.69885 28.5703 8.65863 28.4321 8.57185 28.3239C8.48508 28.2156 8.35887 28.1463 8.22099 28.1311C3.70318 27.133 2.09153 25.9268 2.09153 25.1366V19.8182C5.30963 22.3552 15.515 23.7225 25.2265 23.7225C34.9379 23.7225 45.1433 22.3552 48.3614 19.8182V25.1366C48.3614 27.3045 38.8579 29.7272 25.2265 29.7272C21.0777 29.7428 16.9323 29.4875 12.8168 28.963C12.6789 28.945 12.5395 28.9826 12.4294 29.0674C12.3192 29.1523 12.2472 29.2774 12.2293 29.4153C12.2114 29.5532 12.249 29.6925 12.3338 29.8027C12.4186 29.9129 12.5437 29.9848 12.6816 30.0027C16.8419 30.5325 21.0326 30.7878 25.2265 30.767C34.9379 30.767 45.1433 29.4101 48.3614 26.8678V33.6887C48.3313 33.8759 48.2615 34.0544 48.1565 34.2122C48.0516 34.3701 47.914 34.5036 47.7531 34.6037H47.7791ZM10.9972 29.1137C10.9972 29.2166 10.9667 29.3171 10.9096 29.4026C10.8524 29.4881 10.7712 29.5547 10.6762 29.594C10.5813 29.6334 10.4767 29.6437 10.3759 29.6236C10.275 29.6036 10.1824 29.5541 10.1097 29.4813C10.037 29.4086 9.98746 29.316 9.9674 29.2152C9.94734 29.1143 9.95763 29.0098 9.99698 28.9148C10.0363 28.8198 10.103 28.7386 10.1885 28.6815C10.274 28.6243 10.3745 28.5938 10.4773 28.5938C10.6152 28.5938 10.7474 28.6486 10.8449 28.7461C10.9424 28.8436 10.9972 28.9759 10.9972 29.1137Z" fill="#969CA0" />
                                    </svg>