<svg width="281" height="61" viewBox="0 0 281 61" fill="none" xmlns="http://www.w3.org/2000/svg">
    <g clip-path="url(#clip0_390_1675)">
        <path d="M78.1406 45.1808C78.1406 44.8812 78.3726 44.6274 78.6975 44.6274H80.0437C80.3454 44.6274 80.6008 44.8812 80.6008 45.1808V51.5685L87.1458 44.858C87.2385 44.7426 87.401 44.6274 87.5868 44.6274H89.3274C89.7451 44.6274 89.9771 45.1116 89.6523 45.4576L82.9449 52.2372L90.0468 60.0083C90.2325 60.2389 90.1166 60.7692 89.6291 60.7692H87.7723C87.5402 60.7692 87.401 60.6771 87.3547 60.6078L80.6008 53.0443V60.2159C80.6008 60.5157 80.3454 60.7692 80.0437 60.7692H78.6975C78.3726 60.7692 78.1406 60.5157 78.1406 60.2159V45.1808Z" fill="#43AAFF" />
        <path d="M111.029 58.6939C114.348 58.6939 117.064 56.0189 117.064 52.7214C117.064 49.4469 114.348 46.7027 111.029 46.7027C107.734 46.7027 105.018 49.4469 105.018 52.7214C105.018 56.0189 107.734 58.6939 111.029 58.6939ZM111.029 44.3967C115.671 44.3967 119.385 48.1094 119.385 52.7214C119.385 57.3334 115.671 60.9999 111.029 60.9999C106.387 60.9999 102.697 57.3334 102.697 52.7214C102.697 48.1094 106.387 44.3967 111.029 44.3967Z" fill="#43AAFF" />
        <path d="M134.309 44.812C134.309 44.5815 134.517 44.3969 134.75 44.3969H135.33L145.403 55.9729H145.426V45.0656C145.426 44.835 145.612 44.6274 145.867 44.6274H147.352C147.584 44.6274 147.793 44.835 147.793 45.0656V60.5849C147.793 60.8155 147.584 61.0001 147.352 61.0001H146.749L136.676 49.1011H136.653V60.3311C136.653 60.5618 136.467 60.7692 136.212 60.7692H134.75C134.517 60.7692 134.309 60.5618 134.309 60.3311V44.812Z" fill="#43AAFF" />
        <path d="M172.232 55.2811L169.377 48.9627H169.261L166.43 55.2811H172.232ZM161.718 60.1697L168.843 44.6504C168.913 44.512 169.122 44.3969 169.238 44.3969H169.47C169.586 44.3969 169.795 44.512 169.865 44.6504L176.944 60.1697C177.083 60.4697 176.897 60.7692 176.549 60.7692H175.087C174.808 60.7692 174.646 60.6308 174.553 60.4235L173.114 57.2644H165.525C165.061 58.3249 164.573 59.3626 164.109 60.4235C164.039 60.5849 163.854 60.7692 163.575 60.7692H162.113C161.765 60.7692 161.579 60.4697 161.718 60.1697Z" fill="#43AAFF" />
        <path d="M190.867 45.1808C190.867 44.8812 191.099 44.6274 191.424 44.6274H192.77C193.072 44.6274 193.327 44.8812 193.327 45.1808V51.5685L199.872 44.858C199.965 44.7426 200.128 44.6274 200.313 44.6274H202.054C202.472 44.6274 202.704 45.1116 202.379 45.4576L195.671 52.2372L202.773 60.0083C202.959 60.2389 202.843 60.7692 202.356 60.7692H200.499C200.267 60.7692 200.128 60.6771 200.081 60.6078L193.327 53.0443V60.2159C193.327 60.5157 193.072 60.7692 192.77 60.7692H191.424C191.099 60.7692 190.867 60.5157 190.867 60.2159V45.1808Z" fill="#43AAFF" />
        <path d="M222.715 4.63691C222.715 3.44708 222.248 2.32691 221.4 1.48517C220.553 0.643427 219.426 0.179321 218.228 0.179321C217.029 0.179321 215.903 0.643427 215.056 1.48517L199.304 17.1363C190.32 26.062 178.846 30.5112 171.602 23.6993C176.147 28.083 182.129 30.4901 188.492 30.4901C194.979 30.4901 201.07 27.9881 205.648 23.4398L221.4 7.78865C222.248 6.94691 222.715 5.82884 222.715 4.63691Z" fill="#43AAFF" />
        <path d="M199.303 17.1363C196.419 20.0011 192.581 21.5791 188.491 21.5791C184.402 21.5791 180.561 20.0011 177.68 17.1363L161.745 1.30375C160.895 0.462013 159.77 0 158.572 0C157.375 0 156.247 0.462013 155.4 1.30375C154.553 2.14549 154.086 3.26566 154.086 4.4555C154.086 5.64742 154.553 6.7655 155.4 7.60933L171.333 23.4398C171.412 23.5178 171.49 23.5938 171.569 23.6697C171.579 23.6803 171.59 23.6908 171.601 23.6993C178.845 30.5112 190.319 26.062 199.303 17.1363Z" fill="#4F78D6" />
        <path d="M34.2205 0C40.5903 0 46.5864 2.42183 51.1408 6.83092C43.9005 -0.0232023 32.4052 4.42596 23.4089 13.3643L7.65647 29.0155C5.9069 30.7516 3.06175 30.7538 1.31218 29.0155C-0.437392 27.2772 -0.437392 24.4503 1.31218 22.712L17.0646 7.05876C21.6488 2.50621 27.7403 0 34.2205 0Z" fill="#43AAFF" />
        <path d="M105.135 7.88799L89.4843 23.4378C84.9003 27.9904 78.8086 30.4987 72.3285 30.4987C65.9586 30.4987 59.9626 28.0747 55.4082 23.6657C62.6485 30.5219 74.1438 26.0727 83.14 17.1343L98.7906 1.5845C100.538 -0.153818 103.385 -0.153818 105.135 1.5845C106.882 3.32066 106.884 6.14967 105.135 7.88799Z" fill="#43AAFF" />
        <path d="M83.1397 17.1342C74.1434 26.0725 62.6481 30.5217 55.4078 23.6655C55.3292 23.5917 55.2507 23.5157 55.1721 23.4376L45.0314 13.3643C42.1438 10.4932 38.305 8.91308 34.2199 8.91308C30.1368 8.91308 26.298 10.4932 23.4082 13.3643C32.4044 4.42595 43.8998 -0.0232117 51.14 6.83091C51.2186 6.9047 51.2972 6.98065 51.3757 7.05875L61.5164 17.1342C64.404 20.0032 68.2429 21.5833 72.328 21.5833C76.411 21.5833 80.252 20.0032 83.1397 17.1342Z" fill="#4F78D6" />
        <path d="M164.818 25.8638C164.818 27.0535 164.351 28.1738 163.504 29.0155C162.657 29.8572 161.529 30.3214 160.332 30.3214C159.132 30.3214 158.007 29.8572 157.16 29.0155L141.407 13.3644C132.424 4.43867 120.95 -0.0104893 113.705 6.80141C118.251 2.41762 124.232 0.0106201 130.596 0.0106201C137.082 0.0106201 143.174 2.51258 147.751 7.06088L163.504 22.712C164.351 23.5538 164.818 24.6718 164.818 25.8638Z" fill="#43AAFF" />
        <path d="M141.408 13.3644C138.525 10.4996 134.686 8.92162 130.597 8.92162C126.507 8.92162 122.666 10.4996 119.785 13.3644L103.85 29.197C103.001 30.0387 101.875 30.5008 100.678 30.5008C99.4803 30.5008 98.3529 30.0387 97.5057 29.197C96.6585 28.3553 96.1914 27.2351 96.1914 26.0453C96.1914 24.8533 96.6585 23.7353 97.5057 22.8914L113.439 7.06095C113.517 6.98291 113.596 6.90696 113.674 6.83102C113.685 6.82049 113.696 6.80991 113.706 6.80148C120.951 -0.0104249 132.425 4.43873 141.408 13.3644Z" fill="#4F78D6" />
        <path d="M281 25.8638C281 27.0535 280.533 28.1738 279.686 29.0155C278.838 29.8572 277.711 30.3214 276.513 30.3214C275.314 30.3214 274.188 29.8572 273.341 29.0155L257.589 13.3644C248.605 4.43867 237.131 -0.0104894 229.887 6.80141C234.433 2.41762 240.414 0.0106201 246.777 0.0106201C253.264 0.0106201 259.355 2.51258 263.933 7.06088L279.686 22.712C280.533 23.5538 281 24.6718 281 25.8638Z" fill="#43AAFF" />
        <path d="M257.588 13.3644C254.705 10.4996 250.866 8.92162 246.776 8.92162C242.687 8.92162 238.846 10.4996 235.965 13.3644L220.03 29.197C219.18 30.0387 218.055 30.5007 216.858 30.5007C215.66 30.5007 214.533 30.0387 213.685 29.197C212.838 28.3553 212.371 27.2351 212.371 26.0453C212.371 24.8533 212.838 23.7353 213.685 22.8914L229.618 7.06095C229.697 6.98291 229.775 6.90696 229.854 6.83102C229.865 6.82049 229.875 6.80991 229.886 6.80148C237.13 -0.0104246 248.604 4.43873 257.588 13.3644Z" fill="#4F78D6" />
        <path d="M134.984 20.8577C134.984 23.3162 132.978 25.3093 130.504 25.3093C128.029 25.3093 126.023 23.3162 126.023 20.8577C126.023 18.3991 128.029 16.406 130.504 16.406C132.978 16.406 134.984 18.3991 134.984 20.8577Z" fill="#43AAFF" />
        <path d="M251.166 20.8577C251.166 23.3162 249.16 25.3093 246.686 25.3093C244.211 25.3093 242.205 23.3162 242.205 20.8577C242.205 18.3991 244.211 16.406 246.686 16.406C249.16 16.406 251.166 18.3991 251.166 20.8577Z" fill="#43AAFF" />
    </g>
    <defs>
        <clipPath id="clip0_390_1675">
            <rect width="281" height="61" fill="white" />
        </clipPath>
    </defs>
</svg>