<svg width="24" height="24" viewBox="0 0 24 24" fill="none" xmlns="http://www.w3.org/2000/svg">
<path d="M12.0397 0C5.48347 0 0.158923 5.3245 0.158923 11.8411C0.158923 13.9073 0.715222 15.8941 1.74834 17.7219L0 24L6.39733 22.2914C8.26487 23.2848 10.2119 24 12.0397 24C18.5165 24 24 18.3576 24 11.841C24 5.3245 18.6357 0 12.0397 0ZM12.0397 23.2053C10.2914 23.2053 8.42384 22.4901 6.63574 21.4967L6.47682 21.4172L1.1126 22.8874L2.58276 17.6027L2.50328 17.4437C1.50988 15.7351 0.95363 13.7881 0.95363 11.8411C0.95363 5.76159 5.92051 0.794707 12.0397 0.794707C18.1986 0.794707 23.2053 5.76159 23.2053 11.8411C23.2053 17.9206 18.0795 23.2053 12.0397 23.2053Z" fill="white"/>
<path d="M12.0405 1.98682C6.59684 1.98682 2.14648 6.3974 2.14648 11.8411C2.14648 13.7881 2.70278 15.6159 3.69613 17.2451L3.85506 17.4438L2.78227 21.2186L6.67632 20.2252L6.87501 20.3444C8.50414 21.3378 10.2922 21.8543 12.0406 21.8543C17.524 21.8543 22.0141 17.3643 22.0141 11.8411C22.0141 6.3974 17.524 1.98682 12.0405 1.98682ZM12.0008 21.0994C10.4114 21.0994 8.78227 20.5829 7.27234 19.669L6.79552 19.3511L3.89487 20.0663L4.68958 17.2848L4.37168 16.7683C3.41805 15.2981 2.94124 13.5895 2.94124 11.8411C2.94124 6.87426 7.03393 2.78157 12.0406 2.78157C17.087 2.78157 21.2194 6.87426 21.2194 11.8411C21.2194 16.9272 17.0869 21.0596 12.0008 21.0994Z" fill="white"/>
<path d="M18 14.0266L15.4967 12.8743C15.139 12.7154 14.7814 12.8346 14.543 13.1127L13.5894 14.3445C12.8742 14.0664 10.8874 13.1922 9.73511 11.0465L10.6093 10.0134C10.808 9.77498 10.8477 9.45709 10.7285 9.17896L9.65567 6.63592C9.53647 6.35779 9.29806 6.1591 8.98017 6.1591L8.22518 6.11938C7.90729 6.11938 7.54967 6.19887 7.31127 6.43728C6.95366 6.75517 6.27815 7.43067 6.07946 8.34458C5.80133 9.65583 6.23838 11.2055 7.35099 12.7155C8.02649 13.6691 10.0927 16.4903 14.0662 17.6029C14.4635 17.7221 14.8609 17.7618 15.2185 17.7618C15.894 17.7618 16.5298 17.5631 17.0861 17.2452C17.7219 16.8479 18.1589 16.1724 18.3179 15.4571L18.4371 14.9008C18.5165 14.5432 18.3179 14.1856 18 14.0266ZM17.4834 15.2584C17.3642 15.7749 17.0463 16.2518 16.6092 16.5299C15.9337 16.967 15.139 17.0465 14.2649 16.808C10.5695 15.7749 8.62246 13.1127 7.98672 12.2385C7.03309 10.9273 6.63571 9.57625 6.87412 8.50341C7.03304 7.78819 7.54963 7.27161 7.86752 6.99348C7.947 6.914 8.06621 6.87428 8.18541 6.87428L8.98012 6.95376L10.053 9.45709L9.09932 10.5299C8.9404 10.7286 8.90064 11.0465 9.01984 11.2849C10.3311 13.828 12.7152 14.8214 13.4304 15.0598C13.7086 15.1392 13.9867 15.0598 14.1854 14.8214L15.1391 13.5498L17.6424 14.7021L17.4834 15.2584Z" fill="white"/>
</svg>
