<svg width="28" height="20" viewBox="0 0 28 20" fill="none" xmlns="http://www.w3.org/2000/svg">
<path d="M0.890624 19.9288L0.890625 7.20696C0.890625 3.27263 4.18366 0.0711672 8.23053 0.0711674L20.2927 0.071168C24.3404 0.0711683 27.6343 3.27263 27.6343 7.20696L27.6343 9.40127C27.6343 13.3356 24.3413 16.5371 20.2944 16.5371L8.40069 16.5371L0.890624 19.9288ZM8.23053 1.66204C5.08561 1.66204 2.52701 4.1495 2.527 7.20696L2.527 17.4354L8.04009 14.9453L20.2944 14.9453C23.4393 14.9453 25.998 12.4579 25.998 9.40041L25.998 7.2061C25.998 4.14864 23.4385 1.66119 20.2927 1.66119L8.23053 1.66204ZM8.77011 7.0861C9.62974 7.0861 10.3263 7.76325 10.3263 8.59897C10.3263 9.4347 9.62974 10.1118 8.77011 10.1118C7.91049 10.1118 7.21397 9.4347 7.21397 8.59897C7.21397 7.76325 7.91049 7.0861 8.77011 7.0861ZM19.754 7.0861C20.6136 7.0861 21.3101 7.76325 21.3101 8.59897C21.3101 9.4347 20.6136 10.1118 19.754 10.1118C18.8943 10.1118 18.1978 9.4347 18.1978 8.59897C18.1978 7.76325 18.8943 7.0861 19.754 7.0861ZM14.2612 7.0861C15.1208 7.0861 15.8173 7.76325 15.8173 8.59897C15.8173 9.4347 15.1208 10.1118 14.2612 10.1118C13.4015 10.1118 12.705 9.4347 12.705 8.59897C12.705 7.76325 13.4015 7.0861 14.2612 7.0861Z" fill="#43B5E4"/>
</svg>
